<svg xmlns="http://www.w3.org/2000/svg" width="18.385" height="18.381" viewBox="0 0 18.385 18.381">
  <path id="icon_insta" d="M9.192,5.783A4.713,4.713,0,1,0,13.9,10.5,4.705,4.705,0,0,0,9.192,5.783Zm0,7.777A3.064,3.064,0,1,1,12.255,10.5,3.069,3.069,0,0,1,9.192,13.56Zm6-7.969a1.1,1.1,0,1,1-1.1-1.1A1.1,1.1,0,0,1,15.2,5.59Zm3.121,1.116a5.44,5.44,0,0,0-1.485-3.851A5.476,5.476,0,0,0,12.981,1.37c-1.518-.086-6.066-.086-7.584,0A5.468,5.468,0,0,0,1.546,2.851,5.458,5.458,0,0,0,.062,6.7c-.086,1.518-.086,6.066,0,7.584a5.44,5.44,0,0,0,1.485,3.851A5.482,5.482,0,0,0,5.4,19.622c1.518.086,6.066.086,7.584,0a5.44,5.44,0,0,0,3.851-1.485,5.476,5.476,0,0,0,1.485-3.851c.086-1.518.086-6.062,0-7.58Zm-1.961,9.208a3.1,3.1,0,0,1-1.747,1.747c-1.21.48-4.081.369-5.418.369s-4.212.107-5.418-.369a3.1,3.1,0,0,1-1.747-1.747c-.48-1.21-.369-4.081-.369-5.418s-.107-4.212.369-5.418A3.1,3.1,0,0,1,3.773,3.33c1.21-.48,4.081-.369,5.418-.369s4.212-.107,5.418.369a3.1,3.1,0,0,1,1.747,1.747c.48,1.21.369,4.081.369,5.418s.111,4.212-.369,5.418Z" transform="translate(0.003 -1.305)" fill="#fff"/>
</svg>
