<svg xmlns="http://www.w3.org/2000/svg" width="18.095" height="17.98" viewBox="0 0 18.095 17.98">
  <path id="icon_whatsapp" d="M15.385,3.925a8.977,8.977,0,0,0-15.308,6.3,8.875,8.875,0,0,0,1.2,4.455L0,19.292l4.754-1.24A8.985,8.985,0,0,0,9.04,19.136h0a9.025,9.025,0,0,0,9.052-8.91,8.917,8.917,0,0,0-2.71-6.3ZM9.044,17.635a7.476,7.476,0,0,1-3.8-1.031l-.271-.161-2.819.734.751-2.733-.178-.281a7.346,7.346,0,0,1-1.139-3.941A7.462,7.462,0,0,1,14.315,4.989a7.412,7.412,0,0,1,2.266,5.237A7.513,7.513,0,0,1,9.044,17.635Zm4.088-5.546c-.222-.112-1.325-.65-1.531-.722s-.355-.112-.5.112-.578.722-.711.875-.263.169-.485.056A6.088,6.088,0,0,1,6.85,9.761c-.23-.393.23-.365.658-1.216a.41.41,0,0,0-.02-.389c-.057-.112-.5-1.208-.691-1.654s-.368-.373-.5-.381-.279-.008-.428-.008a.832.832,0,0,0-.6.277,2.5,2.5,0,0,0-.784,1.858,4.347,4.347,0,0,0,.913,2.3,9.987,9.987,0,0,0,3.829,3.363,4.408,4.408,0,0,0,2.69.558,2.3,2.3,0,0,0,1.511-1.06,1.851,1.851,0,0,0,.129-1.06c-.053-.1-.2-.157-.424-.265Z" transform="translate(0 -1.313)" fill="#fff"/>
</svg>
