<svg xmlns="http://www.w3.org/2000/svg" width="131.511" height="93.573" viewBox="0 0 131.511 93.573">
  <g id="logo" transform="translate(-69.441 -85.214)">
    <g id="Gruppe_3" data-name="Gruppe 3" transform="translate(69.441 87.48)">
      <g id="Gruppe_26" data-name="Gruppe 26" transform="translate(38.634 23.081)">
        <path id="Pfad_126" data-name="Pfad 126" d="M699.727,400.914c-1.6,3.823-3.48,8.081-3.64,12.294a4.273,4.273,0,0,0,4.075,4.647c2.266.252,4.281-1.557,5.929-2.907a63.526,63.526,0,0,0,7.738-7.761c3.434-3.938,6.479-8.127,9.569-12.317.32-.435-1.625-1.465-2.038-.8a75.657,75.657,0,0,1-7.692,10.233,66.582,66.582,0,0,1-7.715,7.738c-1.877,1.557-3.892,3.2-6.319,3.732-.458.092-.412-.046-.847.092.206-.069.366.023.641.137a4.612,4.612,0,0,1,.572.32c-.137-.092-.092-.046.137.115l-.114-.115c0-.023.114.3.069.069,0-.069-.092-.16-.115-.229a2.134,2.134,0,0,1-.069-.3,5.664,5.664,0,0,1-.114-1.4,18.607,18.607,0,0,1,.893-4.6,74.022,74.022,0,0,1,2.747-7.532c.5-1.053-3.228-2.564-3.709-1.419Z" transform="translate(-696.083 -393.852)" fill="#fff"/>
      </g>
      <g id="Gruppe_27" data-name="Gruppe 27" transform="translate(46.748 23.101)">
        <path id="Pfad_127" data-name="Pfad 127" d="M748.371,394.319a155.231,155.231,0,0,0-12.454,22.824c-2.06,4.853-4.121,10.1-4.373,15.407-.16,3.045.824,5.975,4.121,6.731,4.1.939,7.257-3.549,9.34-6.364,5.471-7.417,9.753-15.75,14.285-23.74.16-.252-.824-.71-1.007-.389-4.121,6.891-8.081,13.919-12.66,20.535a41.922,41.922,0,0,1-5.174,6.364c-1.145,1.1-2.61,2.358-4.258,2.564a2.963,2.963,0,0,1-.778-.023.683.683,0,0,1-.366-.137,1.6,1.6,0,0,1-.321-.275,3.593,3.593,0,0,1-.389-.572,7.161,7.161,0,0,1-.481-3.915c.435-4.831,2.678-9.615,4.739-13.942a216.735,216.735,0,0,1,13.553-23.58c.572-.916-3.045-2.633-3.777-1.488Z" transform="translate(-731.528 -393.938)" fill="#fff"/>
      </g>
      <g id="Gruppe_28" data-name="Gruppe 28" transform="translate(70.425 0)">
        <path id="Pfad_128" data-name="Pfad 128" d="M838.649,333.247c2.839-5.242,5.609-10.508,8.241-15.865,1.6-3.274,3.136-6.547,4.647-9.867,1.442-3.136,2.93-6.776,1.557-10.187a7.38,7.38,0,0,0-8.1-4.19c-3.594.6-5.769,3.571-7.143,6.708-3.228,7.326-3.342,15.544-2.335,23.374a183.525,183.525,0,0,0,4.968,25.091c.275.984,3.732,2.312,3.64.962a38.792,38.792,0,0,1,2.564-17.674,26.676,26.676,0,0,1,4.35-7.44,6.975,6.975,0,0,1,3.457-2.2c.046-.023-.3-.114-.3-.114a4.8,4.8,0,0,1,.321.389,3.1,3.1,0,0,1,.458.961,7.536,7.536,0,0,1,.275,2.472c-.137,6.616-2.633,12.958-3.983,19.368a33.768,33.768,0,0,0-.847,9.34c.183,2.518.389,5.563,2.038,7.623a5.019,5.019,0,0,0,5.769,1.648,7.829,7.829,0,0,0,2.77-2.358c2.289-2.839,3.709-6.41,5.014-9.775,3.571-9.066,6.2-18.521,10.645-27.22,2.106-4.144,4.9-9.386,9.661-10.9a5.962,5.962,0,0,1,6.708,2.289c.939,1.58.8,3.136.641,4.853-.069.664-.252,1.328-.321,1.992-.114.961,2.564,1.763,2.633,1.03.343-3.182-.664-7.394-3.342-9.363a8.731,8.731,0,0,0-6.227-1.534c-2.633.435-4.945,2.381-6.57,4.418a54.68,54.68,0,0,0-6.937,12.431c-2.106,4.83-3.892,9.8-5.815,14.7a95.911,95.911,0,0,1-5.563,12.545,18.384,18.384,0,0,1-2.953,4.052,7.334,7.334,0,0,1-1.58,1.19,4.182,4.182,0,0,1-.733.32,2.406,2.406,0,0,1-.435.114c-.206.046-.755-.023-.435.137-.824-.412-1.145-2.083-1.282-2.885a24.731,24.731,0,0,1-.343-5.037,44.57,44.57,0,0,1,1.488-9.981c.824-3.205,1.809-6.364,2.587-9.592a50.636,50.636,0,0,0,.984-5.2,14.94,14.94,0,0,0,.115-5.334,6.552,6.552,0,0,0-7.669-4.67c-2.93.733-4.807,3.457-6.273,5.906a36.177,36.177,0,0,0-4.831,18.063,24.527,24.527,0,0,0,.321,4.487l3.64.962a114.825,114.825,0,0,1-4.785-20.352,68.954,68.954,0,0,1-1.03-10.622,50.692,50.692,0,0,1,1.236-10.989c.733-3.205,1.9-6.845,3.961-9.478a7.259,7.259,0,0,1,3.961-2.724c1.534-.343,2.472.458,3.205,1.763,1.877,3.32.412,7.211-.916,10.439-1.259,3.068-2.541,6.135-3.892,9.157-2.5,5.586-5.357,10.989-8.2,16.414-.137.229.824.641.984.343Z" transform="translate(-834.953 -293.03)" fill="#fff"/>
      </g>
      <g id="Gruppe_29" data-name="Gruppe 29" transform="translate(0 29.088)">
        <path id="Pfad_129" data-name="Pfad 129" d="M569.376,420.5c-1.832,3.548-3.48,7.166-5.38,10.668a98.66,98.66,0,0,1-8.058,12.66,28.5,28.5,0,0,1-12.2,9.249c-4.991,1.877-12,2.129-14.583-3.48-2.106-4.579-.389-12,5.059-13.324.733-.183-.023-.893-.3-1.076a2.156,2.156,0,0,0-1.923-.321c-1.786.893-2.907,3.136-3.571,4.922a13.931,13.931,0,0,0-.893,7.532c1.1,5.632,6.5,7.944,11.767,7.578,5.632-.389,10.806-3.091,15.087-6.639a54.8,54.8,0,0,0,11.355-12.637c2.77-4.4,5.105-9.02,7.486-13.621.5-1.053-3.228-2.7-3.846-1.511Z" transform="translate(-527.327 -420.09)" fill="#fff"/>
      </g>
    </g>
    <path id="Pfad_1" data-name="Pfad 1" d="M718.237,457.6a45.244,45.244,0,0,1,.5,6.845A45.793,45.793,0,0,1,630.9,482.576" transform="translate(-537.748 -332.445)" fill="none" stroke="#fff" stroke-miterlimit="10" stroke-width="2"/>
    <path id="Pfad_2" data-name="Pfad 2" d="M925.6,321.1a46,46,0,0,1,17.925,23.237" transform="translate(-764.982 -227.194)" fill="none" stroke="#fff" stroke-miterlimit="10" stroke-width="2"/>
    <path id="Pfad_3" data-name="Pfad 3" d="M615.982,344.115a45.848,45.848,0,0,1,44.5-56.615,47.133,47.133,0,0,1,9.752,1.03" transform="translate(-525.257 -201.286)" fill="none" stroke="#fff" stroke-miterlimit="10" stroke-width="2"/>
  </g>
</svg>
