<svg xmlns="http://www.w3.org/2000/svg" xmlns:xlink="http://www.w3.org/1999/xlink" width="117.99" height="84.158" viewBox="0 0 117.99 84.158">
  <defs>
    <linearGradient id="linear-gradient" x1="0.5" x2="1.148" y2="2.136" gradientUnits="objectBoundingBox">
      <stop offset="0"/>
      <stop offset="0.954"/>
      <stop offset="1"/>
    </linearGradient>
  </defs>
  <g id="logo_black_white_2" transform="translate(-851.544 -412.476)">
    <g id="Group_3" data-name="Group 3" transform="translate(851.544 414.612)">
      <g id="Group_26" data-name="Group 26" transform="translate(34.662 20.708)">
        <path id="Path_126" data-name="Path 126" d="M699.352,400.188c-1.438,3.43-3.122,7.25-3.266,11.03a3.834,3.834,0,0,0,3.656,4.17c2.033.226,3.841-1.4,5.32-2.609A57,57,0,0,0,712,405.816c3.081-3.533,5.813-7.292,8.586-11.05.288-.39-1.458-1.315-1.828-.719a67.872,67.872,0,0,1-6.9,9.181,59.728,59.728,0,0,1-6.922,6.942c-1.684,1.4-3.492,2.875-5.669,3.348-.411.082-.37-.041-.76.082.185-.062.329.021.575.123a4.124,4.124,0,0,1,.513.288c-.123-.082-.082-.041.123.1l-.1-.1c0-.021.1.267.062.062,0-.062-.082-.144-.1-.205a1.886,1.886,0,0,1-.062-.267,5.081,5.081,0,0,1-.1-1.253,16.7,16.7,0,0,1,.8-4.128,66.442,66.442,0,0,1,2.465-6.757c.452-.945-2.9-2.3-3.327-1.273Z" transform="translate(-696.083 -393.852)" fill="url(#linear-gradient)"/>
      </g>
      <g id="Group_27" data-name="Group 27" transform="translate(41.942 20.726)">
        <path id="Path_127" data-name="Path 127" d="M746.64,394.28a139.267,139.267,0,0,0-11.174,20.478c-1.849,4.354-3.7,9.058-3.923,13.823-.144,2.732.739,5.361,3.7,6.039,3.677.842,6.511-3.184,8.38-5.71,4.909-6.655,8.75-14.131,12.817-21.3.144-.226-.739-.637-.9-.349-3.7,6.182-7.25,12.488-11.358,18.424a37.6,37.6,0,0,1-4.642,5.71,7.383,7.383,0,0,1-3.82,2.3,2.656,2.656,0,0,1-.7-.021.612.612,0,0,1-.329-.123,1.433,1.433,0,0,1-.288-.246,3.209,3.209,0,0,1-.349-.514,6.425,6.425,0,0,1-.431-3.512c.39-4.334,2.4-8.627,4.252-12.509a194.469,194.469,0,0,1,12.159-21.156c.513-.822-2.732-2.362-3.389-1.335Z" transform="translate(-731.528 -393.938)" fill="url(#linear-gradient)"/>
      </g>
      <g id="Group_28" data-name="Group 28" transform="translate(63.185 0)">
        <path id="Path_128" data-name="Path 128" d="M838.269,329.112c2.547-4.7,5.032-9.428,7.394-14.234,1.438-2.937,2.814-5.874,4.169-8.853,1.294-2.814,2.629-6.08,1.4-9.14a6.621,6.621,0,0,0-7.271-3.759c-3.225.534-5.176,3.2-6.408,6.018-2.9,6.573-3,13.946-2.095,20.971a164.652,164.652,0,0,0,4.457,22.511c.246.883,3.348,2.074,3.266.863a34.8,34.8,0,0,1,2.3-15.857,23.93,23.93,0,0,1,3.9-6.675,6.258,6.258,0,0,1,3.1-1.972c.041-.021-.267-.1-.267-.1a4.3,4.3,0,0,1,.288.349,2.778,2.778,0,0,1,.411.863,6.765,6.765,0,0,1,.246,2.218c-.123,5.936-2.362,11.625-3.574,17.376a30.293,30.293,0,0,0-.76,8.38c.164,2.259.349,4.991,1.828,6.84a4.5,4.5,0,0,0,5.176,1.479,7.024,7.024,0,0,0,2.485-2.116,32.525,32.525,0,0,0,4.5-8.77c3.2-8.134,5.566-16.616,9.551-24.422,1.89-3.718,4.4-8.421,8.668-9.777a5.349,5.349,0,0,1,6.018,2.054,6.659,6.659,0,0,1,.575,4.354c-.062.6-.226,1.191-.288,1.787-.1.863,2.3,1.582,2.362.924.308-2.855-.6-6.634-3-8.4a7.834,7.834,0,0,0-5.587-1.376,10.228,10.228,0,0,0-5.895,3.964A49.053,49.053,0,0,0,869,325.764c-1.89,4.334-3.492,8.791-5.217,13.186a86.051,86.051,0,0,1-4.991,11.256,16.5,16.5,0,0,1-2.65,3.635,6.581,6.581,0,0,1-1.417,1.068,3.748,3.748,0,0,1-.657.288,2.16,2.16,0,0,1-.39.1c-.185.041-.678-.021-.39.123-.739-.37-1.027-1.869-1.15-2.588a22.193,22.193,0,0,1-.308-4.519,39.989,39.989,0,0,1,1.335-8.955c.739-2.876,1.623-5.71,2.321-8.606a45.436,45.436,0,0,0,.883-4.662,13.4,13.4,0,0,0,.1-4.786,5.878,5.878,0,0,0-6.881-4.19c-2.629.657-4.313,3.1-5.628,5.3a32.459,32.459,0,0,0-4.334,16.206,22,22,0,0,0,.288,4.026l3.266.863a103.023,103.023,0,0,1-4.293-18.26,61.867,61.867,0,0,1-.924-9.53,45.478,45.478,0,0,1,1.109-9.859,22.07,22.07,0,0,1,3.553-8.5,6.514,6.514,0,0,1,3.553-2.444c1.376-.308,2.218.411,2.876,1.582,1.684,2.978.37,6.47-.822,9.366-1.13,2.752-2.28,5.5-3.492,8.216-2.239,5.012-4.806,9.859-7.353,14.727-.123.205.739.575.883.308Z" transform="translate(-834.953 -293.03)" fill="url(#linear-gradient)"/>
      </g>
      <g id="Group_29" data-name="Group 29" transform="translate(0 26.098)">
        <path id="Path_129" data-name="Path 129" d="M565.053,420.462c-1.643,3.184-3.122,6.429-4.827,9.571A88.519,88.519,0,0,1,553,441.392a25.572,25.572,0,0,1-10.948,8.3c-4.478,1.684-10.763,1.91-13.084-3.122-1.89-4.108-.349-10.763,4.539-11.954.657-.164-.021-.8-.267-.965a1.934,1.934,0,0,0-1.725-.288c-1.6.8-2.608,2.814-3.2,4.416a12.5,12.5,0,0,0-.8,6.758c.986,5.053,5.833,7.127,10.557,6.8,5.053-.349,9.695-2.773,13.536-5.956a49.167,49.167,0,0,0,10.188-11.338c2.485-3.944,4.58-8.093,6.716-12.221.452-.945-2.9-2.424-3.451-1.356Z" transform="translate(-527.327 -420.09)" fill="url(#linear-gradient)"/>
      </g>
    </g>
    <g id="Group_50" data-name="Group 50">
      <path id="Path_1" data-name="Path 1" d="M709.258,457.6a40.6,40.6,0,0,1,.452,6.141,41.085,41.085,0,0,1-78.81,16.267" transform="translate(241.917 -9.187)" fill="none" stroke="#000" stroke-miterlimit="10" stroke-width="2"/>
      <path id="Path_2" data-name="Path 2" d="M925.6,321.1a41.269,41.269,0,0,1,16.082,20.848" transform="translate(7.748 99.277)" fill="none" stroke="#000" stroke-miterlimit="10" stroke-width="2"/>
      <path id="Path_3" data-name="Path 3" d="M615.85,338.294A41.135,41.135,0,0,1,655.779,287.5a42.292,42.292,0,0,1,8.75.924" transform="translate(254.79 125.976)" fill="none" stroke="#000" stroke-miterlimit="10" stroke-width="2"/>
    </g>
  </g>
</svg>
