<svg xmlns="http://www.w3.org/2000/svg" xmlns:xlink="http://www.w3.org/1999/xlink" width="113.417" height="80.253" viewBox="0 0 113.417 80.253">
  <defs>
    <linearGradient id="linear-gradient" x1="0.5" x2="1.148" y2="2.136" gradientUnits="objectBoundingBox">
      <stop offset="0"/>
      <stop offset="1"/>
    </linearGradient>
  </defs>
  <g id="logo_black_white" transform="translate(0.502 2.082)">
    <g id="Group_26" data-name="Group 26" transform="translate(33.014 19.724)">
      <path id="Path_126" data-name="Path 126" d="M699.2,399.887c-1.369,3.267-2.974,6.906-3.11,10.505a3.651,3.651,0,0,0,3.482,3.971c1.937.215,3.658-1.33,5.067-2.485a54.287,54.287,0,0,0,6.612-6.632c2.935-3.365,5.536-6.945,8.177-10.525.274-.372-1.389-1.252-1.741-.685a64.651,64.651,0,0,1-6.573,8.745,56.9,56.9,0,0,1-6.593,6.612c-1.6,1.33-3.326,2.739-5.4,3.189-.391.078-.352-.039-.724.078.176-.059.313.02.548.117a3.943,3.943,0,0,1,.489.274c-.117-.078-.078-.039.117.1l-.1-.1c0-.02.1.254.059.059,0-.059-.078-.137-.1-.2a1.8,1.8,0,0,1-.059-.254,4.84,4.84,0,0,1-.1-1.193,15.9,15.9,0,0,1,.763-3.932,63.255,63.255,0,0,1,2.348-6.436c.43-.9-2.758-2.191-3.169-1.213Z" transform="translate(-696.083 -393.852)" stroke="#000" stroke-width="1" fill="url(#linear-gradient)"/>
    </g>
    <g id="Group_27" data-name="Group 27" transform="translate(39.949 19.741)">
      <path id="Path_127" data-name="Path 127" d="M745.921,394.263a132.651,132.651,0,0,0-10.642,19.5c-1.761,4.147-3.521,8.627-3.737,13.166-.137,2.6.7,5.106,3.521,5.752,3.5.8,6.2-3.032,7.982-5.439,4.676-6.339,8.334-13.46,12.208-20.287.137-.215-.7-.606-.861-.333-3.521,5.889-6.906,11.895-10.818,17.548a35.822,35.822,0,0,1-4.421,5.439,7.034,7.034,0,0,1-3.639,2.191,2.532,2.532,0,0,1-.665-.02.584.584,0,0,1-.313-.117,1.367,1.367,0,0,1-.274-.235,3.074,3.074,0,0,1-.333-.489,6.12,6.12,0,0,1-.411-3.345c.372-4.128,2.289-8.217,4.049-11.914a185.218,185.218,0,0,1,11.582-20.15c.489-.783-2.6-2.25-3.228-1.272Z" transform="translate(-731.528 -393.938)" stroke="#000" stroke-width="1" fill="url(#linear-gradient)"/>
    </g>
    <g id="Group_28" data-name="Group 28" transform="translate(60.182 0)">
      <path id="Path_128" data-name="Path 128" d="M838.112,327.4c2.426-4.48,4.793-8.98,7.043-13.557,1.369-2.8,2.68-5.6,3.971-8.432,1.233-2.68,2.5-5.791,1.33-8.706a6.307,6.307,0,0,0-6.925-3.58c-3.071.509-4.93,3.052-6.1,5.732-2.758,6.26-2.856,13.284-2,19.974a156.84,156.84,0,0,0,4.245,21.441c.235.841,3.189,1.976,3.111.822a33.15,33.15,0,0,1,2.191-15.1,22.8,22.8,0,0,1,3.717-6.358,5.961,5.961,0,0,1,2.954-1.878c.039-.02-.254-.1-.254-.1a4.1,4.1,0,0,1,.274.333,2.646,2.646,0,0,1,.391.822,6.439,6.439,0,0,1,.235,2.113c-.117,5.654-2.25,11.073-3.4,16.551a28.857,28.857,0,0,0-.724,7.982c.156,2.152.333,4.754,1.741,6.515a4.289,4.289,0,0,0,4.93,1.409,6.69,6.69,0,0,0,2.367-2.015,30.976,30.976,0,0,0,4.284-8.354c3.052-7.747,5.3-15.827,9.1-23.261,1.8-3.541,4.187-8.021,8.256-9.312a5.1,5.1,0,0,1,5.732,1.956,6.342,6.342,0,0,1,.548,4.147c-.059.567-.215,1.135-.274,1.7-.1.822,2.191,1.506,2.25.88.293-2.719-.567-6.319-2.856-8a7.461,7.461,0,0,0-5.321-1.311,9.741,9.741,0,0,0-5.615,3.776,46.728,46.728,0,0,0-5.928,10.623c-1.8,4.128-3.326,8.373-4.969,12.56a81.969,81.969,0,0,1-4.754,10.721,15.711,15.711,0,0,1-2.524,3.463,6.268,6.268,0,0,1-1.35,1.017,3.573,3.573,0,0,1-.626.274,2.058,2.058,0,0,1-.372.1c-.176.039-.646-.02-.372.117-.7-.352-.978-1.78-1.1-2.465a21.13,21.13,0,0,1-.293-4.3,38.089,38.089,0,0,1,1.271-8.53c.7-2.739,1.546-5.439,2.211-8.2a43.26,43.26,0,0,0,.841-4.441,12.767,12.767,0,0,0,.1-4.558,5.6,5.6,0,0,0-6.554-3.991c-2.5.626-4.108,2.954-5.36,5.047a30.915,30.915,0,0,0-4.128,15.436,20.963,20.963,0,0,0,.274,3.834l3.111.822a98.125,98.125,0,0,1-4.089-17.392,58.928,58.928,0,0,1-.88-9.077,43.321,43.321,0,0,1,1.056-9.39,21.023,21.023,0,0,1,3.385-8.1,6.2,6.2,0,0,1,3.385-2.328c1.311-.293,2.113.391,2.739,1.506,1.6,2.837.352,6.162-.783,8.921-1.076,2.622-2.172,5.243-3.326,7.825-2.132,4.773-4.578,9.39-7,14.027-.117.2.7.548.841.293Z" transform="translate(-834.953 -293.03)" stroke="#000" stroke-width="1"/>
    </g>
    <g id="Group_29" data-name="Group 29" transform="translate(0 24.857)">
      <path id="Path_129" data-name="Path 129" d="M563.26,420.444c-1.565,3.032-2.974,6.123-4.6,9.117a84.313,84.313,0,0,1-6.886,10.818,24.356,24.356,0,0,1-10.427,7.9c-4.265,1.6-10.251,1.819-12.462-2.974-1.8-3.913-.333-10.251,4.324-11.386.626-.156-.02-.763-.254-.919a1.842,1.842,0,0,0-1.643-.274c-1.526.763-2.484,2.68-3.052,4.206a11.9,11.9,0,0,0-.763,6.436c.939,4.813,5.556,6.788,10.055,6.475a23.075,23.075,0,0,0,12.892-5.673,46.828,46.828,0,0,0,9.7-10.8c2.367-3.756,4.363-7.708,6.4-11.64.43-.9-2.758-2.308-3.287-1.291Z" transform="translate(-527.327 -420.09)" stroke="#000" stroke-width="1" fill="url(#linear-gradient)"/>
    </g>
    <g id="Group_49" data-name="Group 49" transform="translate(17.093 -1.082)">
      <path id="Path_1" data-name="Path 1" d="M705.534,457.6a38.66,38.66,0,0,1,.43,5.849A39.133,39.133,0,0,1,630.9,478.944" transform="translate(-627.731 -424.323)" fill="none" stroke="#000" stroke-miterlimit="10" stroke-width="2"/>
      <path id="Path_2" data-name="Path 2" d="M925.6,321.1a39.307,39.307,0,0,1,15.318,19.857" transform="translate(-864.778 -314.527)" fill="none" stroke="#000" stroke-miterlimit="10" stroke-width="2"/>
      <path id="Path_3" data-name="Path 3" d="M615.8,335.88a39.18,39.18,0,0,1,38.031-48.38,40.277,40.277,0,0,1,8.334.88" transform="translate(-614.7 -287.5)" fill="none" stroke="#000" stroke-miterlimit="10" stroke-width="2"/>
    </g>
  </g>
</svg>
