<svg xmlns="http://www.w3.org/2000/svg" width="43.403" height="33.216" viewBox="0 0 43.403 33.216">
  <path id="Path_129" data-name="Path 129" d="M566.128,420.473c-1.69,3.274-3.211,6.612-4.964,9.844A91.04,91.04,0,0,1,553.728,442a26.3,26.3,0,0,1-11.26,8.535c-4.605,1.732-11.07,1.965-13.457-3.211-1.943-4.225-.359-11.07,4.669-12.295.676-.169-.021-.824-.275-.993a1.99,1.99,0,0,0-1.775-.3c-1.648.824-2.683,2.894-3.3,4.542a12.855,12.855,0,0,0-.824,6.95c1.014,5.2,6,7.331,10.858,6.992,5.2-.359,9.971-2.852,13.922-6.126a50.567,50.567,0,0,0,10.478-11.661c2.556-4.056,4.711-8.323,6.908-12.57.465-.972-2.979-2.493-3.549-1.394Z" transform="translate(-526.825 -419.546)" stroke="#000" stroke-width="1"/>
</svg>
