<svg xmlns="http://www.w3.org/2000/svg" width="26.256" height="23.192" viewBox="0 0 26.256 23.192">
  <path id="Path_126" data-name="Path 126" d="M699.446,400.368c-1.479,3.528-3.211,7.457-3.359,11.344a3.943,3.943,0,0,0,3.76,4.288c2.091.232,3.95-1.437,5.471-2.683a58.621,58.621,0,0,0,7.14-7.161c3.169-3.634,5.978-7.5,8.83-11.365.3-.4-1.5-1.352-1.88-.739a69.806,69.806,0,0,1-7.1,9.443,61.433,61.433,0,0,1-7.119,7.14c-1.732,1.437-3.591,2.957-5.831,3.443-.422.085-.38-.042-.782.085.19-.063.338.021.591.127a4.25,4.25,0,0,1,.528.3c-.127-.085-.085-.042.127.106l-.106-.106c0-.021.106.275.063.063,0-.063-.085-.148-.106-.211a1.944,1.944,0,0,1-.063-.275,5.224,5.224,0,0,1-.106-1.289,17.171,17.171,0,0,1,.824-4.246,68.339,68.339,0,0,1,2.535-6.95c.465-.972-2.979-2.366-3.422-1.31Z" transform="translate(-695.582 -393.326)" stroke="#000" stroke-width="1"/>
</svg>
