<svg xmlns="http://www.w3.org/2000/svg" width="57.389" height="66.661" viewBox="0 0 57.389 66.661">
  <path id="Path_128" data-name="Path 128" d="M838.364,330.141c2.62-4.838,5.176-9.7,7.605-14.64,1.479-3.021,2.894-6.042,4.288-9.1,1.331-2.894,2.7-6.253,1.437-9.4a6.81,6.81,0,0,0-7.478-3.866c-3.317.549-5.324,3.3-6.591,6.19-2.979,6.76-3.084,14.344-2.155,21.569a169.35,169.35,0,0,0,4.584,23.153c.253.908,3.443,2.134,3.359.887a35.8,35.8,0,0,1,2.366-16.309,24.612,24.612,0,0,1,4.014-6.866,6.436,6.436,0,0,1,3.19-2.028c.042-.021-.275-.106-.275-.106a4.427,4.427,0,0,1,.3.359,2.858,2.858,0,0,1,.423.887,6.958,6.958,0,0,1,.253,2.282c-.127,6.105-2.429,11.957-3.676,17.872a31.161,31.161,0,0,0-.782,8.619c.169,2.324.359,5.133,1.88,7.035a4.631,4.631,0,0,0,5.324,1.521,7.225,7.225,0,0,0,2.556-2.176c2.112-2.62,3.422-5.915,4.626-9.02,3.3-8.366,5.725-17.09,9.823-25.118,1.944-3.824,4.521-8.661,8.915-10.056a5.5,5.5,0,0,1,6.19,2.113,6.849,6.849,0,0,1,.591,4.479c-.063.613-.232,1.225-.3,1.838-.106.887,2.366,1.627,2.429.951.317-2.936-.613-6.823-3.084-8.64a8.057,8.057,0,0,0-5.746-1.415c-2.429.4-4.563,2.2-6.063,4.077a50.452,50.452,0,0,0-6.4,11.471c-1.944,4.457-3.591,9.042-5.366,13.562a88.481,88.481,0,0,1-5.133,11.577,16.965,16.965,0,0,1-2.725,3.739,6.766,6.766,0,0,1-1.458,1.1,3.855,3.855,0,0,1-.676.3,2.225,2.225,0,0,1-.4.106c-.19.042-.7-.021-.4.127-.76-.38-1.056-1.922-1.183-2.662a22.839,22.839,0,0,1-.317-4.648,41.132,41.132,0,0,1,1.373-9.211c.761-2.958,1.669-5.873,2.387-8.852a46.761,46.761,0,0,0,.908-4.8,13.785,13.785,0,0,0,.106-4.922A6.046,6.046,0,0,0,850,317.8c-2.7.676-4.436,3.19-5.788,5.45a33.384,33.384,0,0,0-4.457,16.668,22.636,22.636,0,0,0,.3,4.141l3.359.887A105.963,105.963,0,0,1,839,326.169a63.649,63.649,0,0,1-.951-9.8,46.774,46.774,0,0,1,1.141-10.14,22.7,22.7,0,0,1,3.655-8.746,6.7,6.7,0,0,1,3.655-2.514c1.415-.317,2.281.423,2.958,1.627,1.732,3.063.38,6.654-.845,9.633-1.162,2.831-2.345,5.662-3.591,8.45-2.3,5.155-4.943,10.14-7.563,15.147-.127.211.76.591.908.317Z" transform="translate(-834.466 -292.476)" stroke="#000" stroke-width="1"/>
</svg>
