<svg xmlns="http://www.w3.org/2000/svg" width="26.652" height="42.977" viewBox="0 0 26.652 42.977">
  <path id="Path_127" data-name="Path 127" d="M747.07,394.289a143.24,143.24,0,0,0-11.492,21.062c-1.9,4.479-3.8,9.316-4.035,14.217-.148,2.81.76,5.514,3.8,6.211,3.781.866,6.7-3.274,8.619-5.873,5.049-6.845,9-14.534,13.182-21.907.148-.232-.76-.655-.93-.359-3.8,6.359-7.457,12.844-11.682,18.949a38.671,38.671,0,0,1-4.774,5.873,7.593,7.593,0,0,1-3.929,2.366,2.731,2.731,0,0,1-.718-.021.63.63,0,0,1-.338-.127,1.471,1.471,0,0,1-.3-.253,3.312,3.312,0,0,1-.359-.528,6.609,6.609,0,0,1-.444-3.612c.4-4.457,2.472-8.873,4.373-12.865a200.024,200.024,0,0,1,12.506-21.759c.528-.845-2.81-2.429-3.486-1.373Z" transform="translate(-731.025 -393.398)" stroke="#000" stroke-width="1"/>
</svg>
