<svg xmlns="http://www.w3.org/2000/svg" width="49.027" height="49.016" viewBox="0 0 49.027 49.016">
  <path id="Icon_awesome-instagram" data-name="Icon awesome-instagram" d="M24.511,15.422A12.567,12.567,0,1,0,37.078,27.989,12.547,12.547,0,0,0,24.511,15.422Zm0,20.737a8.17,8.17,0,1,1,8.17-8.17,8.185,8.185,0,0,1-8.17,8.17ZM40.523,14.908a2.931,2.931,0,1,1-2.931-2.931A2.924,2.924,0,0,1,40.523,14.908Zm8.323,2.975c-.186-3.927-1.083-7.4-3.959-10.27S38.544,3.85,34.617,3.653c-4.047-.23-16.177-.23-20.223,0C10.478,3.839,7,4.736,4.123,7.6S.361,13.945.164,17.872c-.23,4.047-.23,16.177,0,20.223.186,3.927,1.083,7.4,3.959,10.27s6.344,3.763,10.27,3.959c4.047.23,16.177.23,20.223,0,3.927-.186,7.4-1.083,10.27-3.959s3.763-6.344,3.959-10.27c.23-4.047.23-16.166,0-20.212ZM43.619,42.438A8.272,8.272,0,0,1,38.959,47.1c-3.227,1.28-10.883.984-14.448.984s-11.233.284-14.448-.984A8.272,8.272,0,0,1,5.4,42.438c-1.28-3.227-.984-10.883-.984-14.448S4.134,16.756,5.4,13.541a8.272,8.272,0,0,1,4.659-4.659C13.289,7.6,20.945,7.9,24.511,7.9s11.233-.284,14.448.984a8.272,8.272,0,0,1,4.659,4.659c1.28,3.227.984,10.883.984,14.448S44.9,39.222,43.619,42.438Z" transform="translate(0.008 -3.481)" fill="#a88c67"/>
</svg>
