<svg xmlns="http://www.w3.org/2000/svg" width="122.617" height="86.948" viewBox="0 0 122.617 86.948">
  <g id="black_white_logo" transform="translate(-825.817 -399.988)">
    <g id="Group_44" data-name="Group 44" transform="translate(826.319 400.543)" style="isolation: isolate">
      <path id="Path_129" data-name="Path 129" d="M566.128,420.473c-1.69,3.274-3.211,6.612-4.964,9.844A91.04,91.04,0,0,1,553.728,442a26.3,26.3,0,0,1-11.26,8.535c-4.605,1.732-11.07,1.965-13.457-3.211-1.943-4.225-.359-11.07,4.669-12.295.676-.169-.021-.824-.275-.993a1.99,1.99,0,0,0-1.775-.3c-1.648.824-2.683,2.894-3.3,4.542a12.855,12.855,0,0,0-.824,6.95c1.014,5.2,6,7.331,10.858,6.992,5.2-.359,9.971-2.852,13.922-6.126a50.567,50.567,0,0,0,10.478-11.661c2.556-4.056,4.711-8.323,6.908-12.57.465-.972-2.979-2.493-3.549-1.394Z" transform="translate(-527.327 -391.596)" stroke="#000" stroke-width="1"/>
      <path id="Path_127" data-name="Path 127" d="M747.07,394.289a143.24,143.24,0,0,0-11.492,21.062c-1.9,4.479-3.8,9.316-4.035,14.217-.148,2.81.76,5.514,3.8,6.211,3.781.866,6.7-3.274,8.619-5.873,5.049-6.845,9-14.534,13.182-21.907.148-.232-.76-.655-.93-.359-3.8,6.359-7.457,12.844-11.682,18.949a38.671,38.671,0,0,1-4.774,5.873,7.593,7.593,0,0,1-3.929,2.366,2.731,2.731,0,0,1-.718-.021.63.63,0,0,1-.338-.127,1.471,1.471,0,0,1-.3-.253,3.312,3.312,0,0,1-.359-.528,6.609,6.609,0,0,1-.444-3.612c.4-4.457,2.472-8.873,4.373-12.865a200.024,200.024,0,0,1,12.506-21.759c.528-.845-2.81-2.429-3.486-1.373Z" transform="translate(-688.129 -371.532)" stroke="#000" stroke-width="1"/>
      <path id="Path_126" data-name="Path 126" d="M699.446,400.368c-1.479,3.528-3.211,7.457-3.359,11.344a3.943,3.943,0,0,0,3.76,4.288c2.091.232,3.95-1.437,5.471-2.683a58.621,58.621,0,0,0,7.14-7.161c3.169-3.634,5.978-7.5,8.83-11.365.3-.4-1.5-1.352-1.88-.739a69.806,69.806,0,0,1-7.1,9.443,61.433,61.433,0,0,1-7.119,7.14c-1.732,1.437-3.591,2.957-5.831,3.443-.422.085-.38-.042-.782.085.19-.063.338.021.591.127a4.25,4.25,0,0,1,.528.3c-.127-.085-.085-.042.127.106l-.106-.106c0-.021.106.275.063.063,0-.063-.085-.148-.106-.211a1.944,1.944,0,0,1-.063-.275,5.224,5.224,0,0,1-.106-1.289,17.171,17.171,0,0,1,.824-4.246,68.339,68.339,0,0,1,2.535-6.95c.465-.972-2.979-2.366-3.422-1.31Z" transform="translate(-660.505 -371.445)" stroke="#000" stroke-width="1"/>
      <path id="Path_128" data-name="Path 128" d="M838.364,330.141c2.62-4.838,5.176-9.7,7.605-14.64,1.479-3.021,2.894-6.042,4.288-9.1,1.331-2.894,2.7-6.253,1.437-9.4a6.81,6.81,0,0,0-7.478-3.866c-3.317.549-5.324,3.3-6.591,6.19-2.979,6.76-3.084,14.344-2.155,21.569a169.35,169.35,0,0,0,4.584,23.153c.253.908,3.443,2.134,3.359.887a35.8,35.8,0,0,1,2.366-16.309,24.612,24.612,0,0,1,4.014-6.866,6.436,6.436,0,0,1,3.19-2.028c.042-.021-.275-.106-.275-.106a4.427,4.427,0,0,1,.3.359,2.858,2.858,0,0,1,.423.887,6.958,6.958,0,0,1,.253,2.282c-.127,6.105-2.429,11.957-3.676,17.872a31.161,31.161,0,0,0-.782,8.619c.169,2.324.359,5.133,1.88,7.035a4.631,4.631,0,0,0,5.324,1.521,7.225,7.225,0,0,0,2.556-2.176c2.112-2.62,3.422-5.915,4.626-9.02,3.3-8.366,5.725-17.09,9.823-25.118,1.944-3.824,4.521-8.661,8.915-10.056a5.5,5.5,0,0,1,6.19,2.113,6.849,6.849,0,0,1,.591,4.479c-.063.613-.232,1.225-.3,1.838-.106.887,2.366,1.627,2.429.951.317-2.936-.613-6.823-3.084-8.64a8.057,8.057,0,0,0-5.746-1.415c-2.429.4-4.563,2.2-6.063,4.077a50.452,50.452,0,0,0-6.4,11.471c-1.944,4.457-3.591,9.042-5.366,13.562a88.481,88.481,0,0,1-5.133,11.577,16.965,16.965,0,0,1-2.725,3.739,6.766,6.766,0,0,1-1.458,1.1,3.855,3.855,0,0,1-.676.3,2.225,2.225,0,0,1-.4.106c-.19.042-.7-.021-.4.127-.76-.38-1.056-1.922-1.183-2.662a22.839,22.839,0,0,1-.317-4.648,41.132,41.132,0,0,1,1.373-9.211c.761-2.958,1.669-5.873,2.387-8.852a46.761,46.761,0,0,0,.908-4.8,13.785,13.785,0,0,0,.106-4.922A6.046,6.046,0,0,0,850,317.8c-2.7.676-4.436,3.19-5.788,5.45a33.384,33.384,0,0,0-4.457,16.668,22.636,22.636,0,0,0,.3,4.141l3.359.887A105.963,105.963,0,0,1,839,326.169a63.649,63.649,0,0,1-.951-9.8,46.774,46.774,0,0,1,1.141-10.14,22.7,22.7,0,0,1,3.655-8.746,6.7,6.7,0,0,1,3.655-2.514c1.415-.317,2.281.423,2.958,1.627,1.732,3.063.38,6.654-.845,9.633-1.162,2.831-2.345,5.662-3.591,8.45-2.3,5.155-4.943,10.14-7.563,15.147-.127.211.76.591.908.317Z" transform="translate(-769.74 -293.03)" stroke="#000" stroke-width="1"/>
      <path id="Path_1" data-name="Path 1" d="M711.493,457.6a41.746,41.746,0,0,1,.465,6.316A42.257,42.257,0,0,1,630.9,480.648" transform="translate(-609.703 -420.773)" fill="none" stroke="#000" stroke-miterlimit="10" stroke-width="2"/>
      <path id="Path_2" data-name="Path 2" d="M925.6,321.1a42.446,42.446,0,0,1,16.541,21.442" transform="translate(-842.147 -313.109)" fill="none" stroke="#000" stroke-miterlimit="10" stroke-width="2"/>
      <path id="Path_3" data-name="Path 3" d="M615.883,339.743A42.308,42.308,0,0,1,656.95,287.5a43.5,43.5,0,0,1,9,.951" transform="translate(-596.926 -286.607)" fill="none" stroke="#000" stroke-miterlimit="10" stroke-width="2"/>
    </g>
  </g>
</svg>
