<svg xmlns="http://www.w3.org/2000/svg" width="272.809" height="47.953" viewBox="0 0 272.809 47.953">
  <g id="Gruppe_32" data-name="Gruppe 32" transform="translate(-461 -627.823)">
    <g id="Gruppe_1" data-name="Gruppe 1" transform="translate(461 627.823)">
      <path id="Pfad_100" data-name="Pfad 100" d="M436.588,733.6a1.116,1.116,0,0,1,.336.841v21.469a1.15,1.15,0,0,1-1.178,1.178,1.192,1.192,0,0,1-.875-.336,1.116,1.116,0,0,1-.337-.841v-17.3l-8.48,17.33a1.2,1.2,0,0,1-1.043.572,1.149,1.149,0,0,1-1.11-.74l-8.446-16.926v16.994a1.178,1.178,0,1,1-2.356,0V734.378a1.068,1.068,0,0,1,.336-.841,1.116,1.116,0,0,1,.841-.336,1.176,1.176,0,0,1,1.077.606l9.759,19.417,9.591-19.417a1.176,1.176,0,0,1,1.077-.606A1.539,1.539,0,0,1,436.588,733.6Z" transform="translate(-413.1 -732.965)"/>
      <path id="Pfad_101" data-name="Pfad 101" d="M515.027,756.047a1.15,1.15,0,0,1-1.178,1.178,1.162,1.162,0,0,1-1.144-.74l-2.053-4.947H498.841l-2.053,4.947a1.042,1.042,0,0,1-1.11.74,1.068,1.068,0,0,1-.841-.336,1.258,1.258,0,0,1-.336-.841,1.124,1.124,0,0,1,.1-.5l8.985-21.3a1.21,1.21,0,0,1,1.144-.841,1.141,1.141,0,0,1,1.144.841l9.018,21.335A.772.772,0,0,1,515.027,756.047Zm-15.311-6.528h10.129l-5.081-12.249Z" transform="translate(-467.108 -733.097)"/>
      <path id="Pfad_102" data-name="Pfad 102" d="M581.109,756.183a.908.908,0,0,1-.336.74,1.426,1.426,0,0,1-.875.269,1.162,1.162,0,0,1-.606-.168,1.487,1.487,0,0,1-.437-.471L573.37,747.8h-5.014v8.144a1.068,1.068,0,0,1-.336.841,1.116,1.116,0,0,1-.841.336,1.068,1.068,0,0,1-.841-.336,1.116,1.116,0,0,1-.336-.841V734.478a1.068,1.068,0,0,1,.336-.841,1.116,1.116,0,0,1,.841-.337H572.9a8.147,8.147,0,0,1,3.971.942,6.606,6.606,0,0,1,2.726,2.625,7.2,7.2,0,0,1,.976,3.8,7.02,7.02,0,0,1-1.279,4.139,6.882,6.882,0,0,1-3.432,2.524l5.014,8.009A2.126,2.126,0,0,1,581.109,756.183Zm-8.278-10.634a5.754,5.754,0,0,0,2.759-.639,4.341,4.341,0,0,0,1.918-1.716,4.54,4.54,0,0,0,.673-2.49,5.25,5.25,0,0,0-.673-2.625,4.98,4.98,0,0,0-1.918-1.817,5.8,5.8,0,0,0-2.793-.639h-4.509v9.927h4.543Z" transform="translate(-514.548 -733.031)"/>
      <path id="Pfad_103" data-name="Pfad 103" d="M622.237,756.889a1.116,1.116,0,0,1-.336-.841V734.578a1.068,1.068,0,0,1,.336-.841,1.117,1.117,0,0,1,.841-.336h14.335a1.068,1.068,0,0,1,.841.336,1.116,1.116,0,0,1,.337.841,1,1,0,0,1-.337.808,1.258,1.258,0,0,1-.841.336H624.289v8.413h9.557a1.068,1.068,0,0,1,.841.337,1.178,1.178,0,0,1-.841,2.019h-9.557V755h13.124a1.068,1.068,0,0,1,.841.336,1,1,0,0,1,.337.808,1.15,1.15,0,0,1-1.178,1.178H623.078A1.7,1.7,0,0,1,622.237,756.889Z" transform="translate(-551.637 -733.097)"/>
      <path id="Pfad_104" data-name="Pfad 104" d="M685.036,756.889a1.116,1.116,0,0,1-.336-.841V734.578a1.068,1.068,0,0,1,.336-.841,1.117,1.117,0,0,1,.841-.336,1.068,1.068,0,0,1,.841.336,1.116,1.116,0,0,1,.336.841v21.469a1.15,1.15,0,0,1-1.178,1.178A1.046,1.046,0,0,1,685.036,756.889Z" transform="translate(-593.304 -733.097)"/>
      <path id="Pfad_105" data-name="Pfad 105" d="M710.336,756.889a1.116,1.116,0,0,1-.336-.841V734.578a1.15,1.15,0,0,1,1.178-1.178,1.068,1.068,0,0,1,.841.336,1.116,1.116,0,0,1,.337.841v10.4l11.138-11.138a1.369,1.369,0,0,1,.942-.437,1.091,1.091,0,0,1,.808.3,1.066,1.066,0,0,1,.3.774,1.348,1.348,0,0,1-.4.976l-8.379,8.379,8.446,11.542a1.36,1.36,0,0,1,.236.74,1.094,1.094,0,0,1-.336.808.975.975,0,0,1-.774.336,1.158,1.158,0,0,1-1.01-.5l-8.312-11.24-2.726,2.759v7.807a1.15,1.15,0,0,1-1.178,1.178A1.06,1.06,0,0,1,710.336,756.889Z" transform="translate(-610.09 -733.097)"/>
      <path id="Pfad_106" data-name="Pfad 106" d="M769.737,756.889a1.116,1.116,0,0,1-.336-.841V734.578a1.068,1.068,0,0,1,.336-.841,1.117,1.117,0,0,1,.841-.336h14.335a1.068,1.068,0,0,1,.841.336,1.117,1.117,0,0,1,.336.841,1,1,0,0,1-.336.808,1.259,1.259,0,0,1-.841.336H771.789v8.413h9.557a1.068,1.068,0,0,1,.841.337,1.178,1.178,0,0,1-.841,2.019h-9.557V755h13.124a1.068,1.068,0,0,1,.841.336,1,1,0,0,1,.336.808,1.15,1.15,0,0,1-1.178,1.178H770.578A1.567,1.567,0,0,1,769.737,756.889Z" transform="translate(-649.501 -733.097)"/>
      <path id="Pfad_107" data-name="Pfad 107" d="M859.136,756.889a1.117,1.117,0,0,1-.336-.841V734.578a1.068,1.068,0,0,1,.336-.841,1.117,1.117,0,0,1,.841-.336,1.068,1.068,0,0,1,.841.336,1.116,1.116,0,0,1,.336.841V744.1h14.907v-9.523a1.068,1.068,0,0,1,.337-.841,1.117,1.117,0,0,1,.841-.336,1.068,1.068,0,0,1,.841.336,1.116,1.116,0,0,1,.337.841v21.469a1.178,1.178,0,1,1-2.356,0v-9.792H861.156v9.792a1.15,1.15,0,0,1-1.178,1.178A1.006,1.006,0,0,1,859.136,756.889Z" transform="translate(-708.817 -733.097)"/>
      <path id="Pfad_108" data-name="Pfad 108" d="M935.737,756.889a1.116,1.116,0,0,1-.336-.841V734.578a1.068,1.068,0,0,1,.336-.841,1.116,1.116,0,0,1,.841-.336h14.335a1.068,1.068,0,0,1,.841.336,1.116,1.116,0,0,1,.336.841,1,1,0,0,1-.336.808,1.259,1.259,0,0,1-.841.336H937.789v8.413h9.557a1.068,1.068,0,0,1,.841.337,1.178,1.178,0,0,1-.841,2.019h-9.557V755h13.124a1.068,1.068,0,0,1,.841.336,1,1,0,0,1,.336.808,1.15,1.15,0,0,1-1.178,1.178H936.578A1.567,1.567,0,0,1,935.737,756.889Z" transform="translate(-759.641 -733.097)"/>
      <path id="Pfad_109" data-name="Pfad 109" d="M1013.409,756.183a.909.909,0,0,1-.337.74,1.426,1.426,0,0,1-.875.269,1.162,1.162,0,0,1-.606-.168,1.49,1.49,0,0,1-.438-.471l-5.485-8.749h-5.014v8.144a1.068,1.068,0,0,1-.337.841,1.116,1.116,0,0,1-.841.336,1.068,1.068,0,0,1-.841-.336,1.116,1.116,0,0,1-.336-.841V734.478a1.068,1.068,0,0,1,.336-.841,1.116,1.116,0,0,1,.841-.337h5.721a8.147,8.147,0,0,1,3.971.942,6.606,6.606,0,0,1,2.726,2.625,7.2,7.2,0,0,1,.976,3.8,7.02,7.02,0,0,1-1.279,4.139,6.882,6.882,0,0,1-3.432,2.524l5.014,8.009A1.685,1.685,0,0,1,1013.409,756.183Zm-8.278-10.634a5.754,5.754,0,0,0,2.759-.639,4.341,4.341,0,0,0,1.918-1.716,4.54,4.54,0,0,0,.673-2.49,5.25,5.25,0,0,0-.673-2.625,4.98,4.98,0,0,0-1.918-1.817,5.8,5.8,0,0,0-2.793-.639h-4.509v9.927h4.543Z" transform="translate(-801.374 -733.031)"/>
      <path id="Pfad_110" data-name="Pfad 110" d="M1054.57,756.922a1.116,1.116,0,0,1-.37-.875V734.578a1.068,1.068,0,0,1,.336-.841,1.117,1.117,0,0,1,.841-.336h7.437a7.113,7.113,0,0,1,3.3.774,6.059,6.059,0,0,1,2.356,2.154,5.728,5.728,0,0,1,.875,3.1,5.063,5.063,0,0,1-.875,2.894,5.822,5.822,0,0,1-2.322,1.985,6.318,6.318,0,0,1,3.331,2.086,5.915,5.915,0,0,1,1.212,3.8,6.806,6.806,0,0,1-.942,3.634,6.45,6.45,0,0,1-2.625,2.49,7.842,7.842,0,0,1-3.8.909h-7.773A1.313,1.313,0,0,1,1054.57,756.922Zm8.245-13.561a4.307,4.307,0,0,0,3.029-1.043,3.7,3.7,0,0,0,1.178-2.894,3.44,3.44,0,0,0-1.144-2.759,4.64,4.64,0,0,0-3.062-.976h-6.225v7.672Zm.538,11.576a5.129,5.129,0,0,0,3.634-1.312,4.466,4.466,0,0,0,1.38-3.466,4.216,4.216,0,0,0-1.38-3.3,5.185,5.185,0,0,0-3.634-1.245h-6.764v9.321Z" transform="translate(-838.463 -733.097)"/>
      <path id="Pfad_111" data-name="Pfad 111" d="M1117.165,755.719a7.692,7.692,0,0,1-3.23-3.331,1.115,1.115,0,0,1-.135-.5.846.846,0,0,1,.336-.707,1.326,1.326,0,0,1,1.548-.1,1.316,1.316,0,0,1,.471.572,5.31,5.31,0,0,0,2.322,2.221,8.022,8.022,0,0,0,3.8.841,6.276,6.276,0,0,0,4.038-1.211,4.055,4.055,0,0,0,1.514-3.365,4.236,4.236,0,0,0-1.413-3.231,7.477,7.477,0,0,0-4.274-1.683,9.932,9.932,0,0,1-5.586-2.221,5.783,5.783,0,0,1-1.043-7.605,6.349,6.349,0,0,1,2.759-2.154,9.946,9.946,0,0,1,3.971-.74,8.271,8.271,0,0,1,4.24,1.077,7.857,7.857,0,0,1,2.86,2.793,1.441,1.441,0,0,1,.2.74.961.961,0,0,1-.538.909,1.411,1.411,0,0,1-.538.135,1.392,1.392,0,0,1-.639-.168,1.265,1.265,0,0,1-.471-.471,5.821,5.821,0,0,0-5.149-2.726,6.4,6.4,0,0,0-3.9,1.043,3.5,3.5,0,0,0-1.447,2.961c0,2.389,1.918,3.836,5.788,4.341a10.219,10.219,0,0,1,5.653,2.322,6.11,6.11,0,0,1,1.851,4.678,6.457,6.457,0,0,1-1.043,3.7,6.675,6.675,0,0,1-2.827,2.355,9.835,9.835,0,0,1-4.038.808A10.929,10.929,0,0,1,1117.165,755.719Z" transform="translate(-878.007 -732.5)"/>
      <path id="Pfad_112" data-name="Pfad 112" d="M1185.944,733.7a1.091,1.091,0,0,1,.3.808,1.066,1.066,0,0,1-.3.774,1.091,1.091,0,0,1-.808.3H1177.9v20.494a1.178,1.178,0,1,1-2.355,0V735.587h-7.235a1.092,1.092,0,0,1-.808-.3,1.066,1.066,0,0,1-.3-.774,1.042,1.042,0,0,1,1.11-1.111H1185.2A1.044,1.044,0,0,1,1185.944,733.7Z" transform="translate(-913.437 -733.097)"/>
    </g>
    <g id="Gruppe_31" data-name="Gruppe 31" transform="translate(483.176 661.777)">
      <g id="Gruppe_2" data-name="Gruppe 2" transform="translate(28.435)">
        <path id="Pfad_113" data-name="Pfad 113" d="M563.7,844.431a.685.685,0,0,1-.2-.5v-9.119a.69.69,0,0,1,.707-.707h3.23a3.57,3.57,0,0,1,1.615.37,2.713,2.713,0,0,1,1.514,2.456,2.039,2.039,0,0,1-.37,1.178,2.65,2.65,0,0,1-.976.841,2.572,2.572,0,0,1,1.447.875,2.619,2.619,0,0,1,.538,1.649,3.1,3.1,0,0,1-.437,1.649,3.3,3.3,0,0,1-1.211,1.144,3.866,3.866,0,0,1-1.783.4h-3.5A.9.9,0,0,1,563.7,844.431Zm3.7-5.99a1.941,1.941,0,0,0,1.279-.4,1.445,1.445,0,0,0,.471-1.144,1.328,1.328,0,0,0-.471-1.11,1.871,1.871,0,0,0-1.279-.37H564.88v3.029Zm.3,4.879a2.167,2.167,0,0,0,1.514-.5,1.8,1.8,0,0,0,.572-1.38,1.541,1.541,0,0,0-.572-1.279,2.319,2.319,0,0,0-1.514-.437h-2.793v3.6h2.793Z" transform="translate(-563.5 -833.864)" fill="#a88c67"/>
        <path id="Pfad_114" data-name="Pfad 114" d="M609.5,847.571a.64.64,0,0,1-.437.168h-5.115a2.286,2.286,0,0,0,.841,1.514,2.7,2.7,0,0,0,1.716.572,2.58,2.58,0,0,0,.841-.135,2.294,2.294,0,0,0,.707-.37.676.676,0,0,1,.437-.135.537.537,0,0,1,.4.135.588.588,0,0,1,.236.471.48.48,0,0,1-.2.4,4.051,4.051,0,0,1-1.144.606,3.609,3.609,0,0,1-1.312.235,4.32,4.32,0,0,1-1.985-.471,3.56,3.56,0,0,1-1.885-3.23,4.045,4.045,0,0,1,.471-1.918,3.513,3.513,0,0,1,1.279-1.346,3.818,3.818,0,0,1,1.884-.471,3.352,3.352,0,0,1,1.784.471,3.014,3.014,0,0,1,1.144,1.279,4.2,4.2,0,0,1,.4,1.884C609.667,847.3,609.633,847.436,609.5,847.571Zm-4.778-2.356a2.443,2.443,0,0,0-.774,1.447h4.509a2.337,2.337,0,0,0-.673-1.447,1.929,1.929,0,0,0-1.447-.538A2.345,2.345,0,0,0,604.72,845.215Z" transform="translate(-589.442 -840.167)" fill="#a88c67"/>
        <path id="Pfad_115" data-name="Pfad 115" d="M644.486,843.8a3.724,3.724,0,0,1,1.851,3.264v2.995a.707.707,0,1,1-1.413,0v-.5a3.8,3.8,0,0,1-1.144.909,3.511,3.511,0,0,1-1.447.336,3.29,3.29,0,0,1-2.995-1.817,4.277,4.277,0,0,1,.034-3.836A3.722,3.722,0,0,1,642.6,843.3,3.508,3.508,0,0,1,644.486,843.8Zm-.639,5.451a2.193,2.193,0,0,0,.841-.909,2.851,2.851,0,0,0,0-2.557,2.721,2.721,0,0,0-.841-.909,2.349,2.349,0,0,0-2.423,0,2.82,2.82,0,0,0-.875.909,2.851,2.851,0,0,0,0,2.557,2.511,2.511,0,0,0,.875.909,2.2,2.2,0,0,0,1.211.336A2.956,2.956,0,0,0,643.847,849.256Z" transform="translate(-613.527 -839.969)" fill="#a88c67"/>
        <path id="Pfad_116" data-name="Pfad 116" d="M685.33,843.668a.685.685,0,0,1,.2.5v5.99a.707.707,0,1,1-1.413,0v-.135a3.312,3.312,0,0,1-1.01.673,3.2,3.2,0,0,1-1.279.236,3.55,3.55,0,0,1-1.682-.4A2.761,2.761,0,0,1,679,849.355a3.955,3.955,0,0,1-.4-1.851v-3.3a.707.707,0,1,1,1.413,0v3.3a2.225,2.225,0,0,0,.572,1.649,2.137,2.137,0,0,0,1.548.572,2.255,2.255,0,0,0,1.043-.236,2.651,2.651,0,0,0,.74-.606,1.581,1.581,0,0,0,.269-.875v-3.8a.69.69,0,0,1,.707-.707A.6.6,0,0,1,685.33,843.668Z" transform="translate(-639.868 -840.101)" fill="#a88c67"/>
        <path id="Pfad_117" data-name="Pfad 117" d="M720.076,844.915a.8.8,0,0,1,.168.471.509.509,0,0,1-.235.471.792.792,0,0,1-.572.2H719.2a2.2,2.2,0,0,1-1.211-.336,2.284,2.284,0,0,1-.841-.942,2.935,2.935,0,0,1-.3-1.346V840.1h-.606a.729.729,0,0,1-.471-.168.557.557,0,0,1-.168-.4.64.64,0,0,1,.168-.437.666.666,0,0,1,.471-.168h.606v-1.952a.565.565,0,0,1,.2-.471.664.664,0,0,1,.471-.2.564.564,0,0,1,.471.2.664.664,0,0,1,.2.471v1.952h1.144a.73.73,0,0,1,.471.168.481.481,0,0,1,.168.437.558.558,0,0,1-.168.4.666.666,0,0,1-.471.168h-1.144v3.331a1.346,1.346,0,0,0,.3.909.94.94,0,0,0,.74.37h.471A1.368,1.368,0,0,1,720.076,844.915Z" transform="translate(-664.417 -835.324)" fill="#a88c67"/>
        <path id="Pfad_118" data-name="Pfad 118" d="M750.234,844.039a1.484,1.484,0,0,1-.067.337l-4.105,9.254a.536.536,0,0,1-.538.4,1.481,1.481,0,0,1-.336-.067.564.564,0,0,1-.4-.538,1.481,1.481,0,0,1,.067-.337l1.346-3.029-3.029-5.754a.633.633,0,0,1-.067-.269.649.649,0,0,1,.1-.337.91.91,0,0,1,.269-.236.636.636,0,0,1,.269-.067.659.659,0,0,1,.572.37l2.457,4.913,2.154-4.879a.564.564,0,0,1,.538-.4,1.2,1.2,0,0,1,.337.067C750.1,843.6,750.234,843.77,750.234,844.039Z" transform="translate(-682.663 -840.035)" fill="#a88c67"/>
        <path id="Pfad_119" data-name="Pfad 119" d="M810.618,843.6a.585.585,0,0,1-.2.37.651.651,0,0,1-.437.2.724.724,0,0,1-.437-.2l-1.481-1.481-.067.067a7.166,7.166,0,0,1-1.582,1.346,3.78,3.78,0,0,1-1.851.471,3.014,3.014,0,0,1-2.086-.707,2.508,2.508,0,0,1-.774-1.918,2.569,2.569,0,0,1,.538-1.582,13.155,13.155,0,0,1,1.683-1.649l.067-.067-.707-.707a2.907,2.907,0,0,1-.942-2.086,1.911,1.911,0,0,1,.336-1.144,2.032,2.032,0,0,1,.875-.807,2.851,2.851,0,0,1,2.557,0,2.336,2.336,0,0,1,.875.841,2.519,2.519,0,0,1,.336,1.211,2.274,2.274,0,0,1-.4,1.346,5.991,5.991,0,0,1-1.312,1.312l2.423,2.423,1.077-1.144a.631.631,0,0,1,.471-.269.465.465,0,0,1,.3.168.575.575,0,0,1,0,.875l-1.11,1.178,1.481,1.481C810.55,843.293,810.618,843.462,810.618,843.6Zm-3.3-1.885-2.524-2.524-.168.135a6.459,6.459,0,0,0-1.178,1.178,1.993,1.993,0,0,0-.4,1.178,1.53,1.53,0,0,0,.4,1.144,1.6,1.6,0,0,0,1.178.37,2.582,2.582,0,0,0,1.346-.337,6.454,6.454,0,0,0,1.279-1.043Zm-2.356-3.971.135-.1a3.092,3.092,0,0,0,.875-.942,1.783,1.783,0,0,0,.236-.942,1.242,1.242,0,0,0-.37-.909,1.346,1.346,0,0,0-.976-.37,1.3,1.3,0,0,0-.942.336,1.147,1.147,0,0,0-.37.841,1.991,1.991,0,0,0,.673,1.38Z" transform="translate(-721.543 -833.4)" fill="#a88c67"/>
        <path id="Pfad_120" data-name="Pfad 120" d="M869.2,844.431a.685.685,0,0,1-.2-.5v-9.119a.685.685,0,0,1,.2-.5.665.665,0,0,1,.471-.2.69.69,0,0,1,.707.707v8.413h4.879a.707.707,0,1,1,0,1.413h-5.586A.611.611,0,0,1,869.2,844.431Z" transform="translate(-766.196 -833.864)" fill="#a88c67"/>
        <path id="Pfad_121" data-name="Pfad 121" d="M910.786,843.8a3.724,3.724,0,0,1,1.851,3.264v2.995a.707.707,0,1,1-1.413,0v-.5a3.8,3.8,0,0,1-1.144.909,3.511,3.511,0,0,1-1.447.336,3.29,3.29,0,0,1-2.995-1.817,4.277,4.277,0,0,1,.034-3.836,3.753,3.753,0,0,1,5.115-1.346Zm-.673,5.451a2.194,2.194,0,0,0,.841-.909,2.851,2.851,0,0,0,0-2.557,2.721,2.721,0,0,0-.841-.909,2.349,2.349,0,0,0-2.423,0,2.82,2.82,0,0,0-.875.909,2.852,2.852,0,0,0,0,2.557,2.51,2.51,0,0,0,.875.909,2.2,2.2,0,0,0,1.211.336A2.957,2.957,0,0,0,910.113,849.256Z" transform="translate(-790.214 -839.969)" fill="#a88c67"/>
        <path id="Pfad_122" data-name="Pfad 122" d="M945.247,850.5a3.56,3.56,0,0,1-1.279-.74.62.62,0,0,1-.168-.4.7.7,0,0,1,.269-.538.8.8,0,0,1,.471-.2.7.7,0,0,1,.5.236,2.367,2.367,0,0,0,.774.5,2.915,2.915,0,0,0,1.077.2,2.257,2.257,0,0,0,1.178-.269.815.815,0,0,0,.438-.673.873.873,0,0,0-.4-.707,4.5,4.5,0,0,0-1.413-.471c-1.716-.336-2.591-1.043-2.591-2.12a1.612,1.612,0,0,1,.4-1.111,2.326,2.326,0,0,1,1.009-.673,4.344,4.344,0,0,1,1.346-.236,4.723,4.723,0,0,1,1.582.269,2.74,2.74,0,0,1,1.111.774.793.793,0,0,1,.168.437.44.44,0,0,1-.236.4.679.679,0,0,1-.37.1.984.984,0,0,1-.639-.269,2.694,2.694,0,0,0-.707-.437,2.463,2.463,0,0,0-.909-.135,2.249,2.249,0,0,0-1.01.2.637.637,0,0,0-.4.572.621.621,0,0,0,.135.438,1.2,1.2,0,0,0,.5.336,6.407,6.407,0,0,0,1.077.3,4.957,4.957,0,0,1,2.086.808,1.694,1.694,0,0,1,.606,1.346,1.878,1.878,0,0,1-.337,1.111,2.342,2.342,0,0,1-.976.808,3.683,3.683,0,0,1-1.582.3A3.276,3.276,0,0,1,945.247,850.5Z" transform="translate(-815.825 -839.969)" fill="#a88c67"/>
        <path id="Pfad_123" data-name="Pfad 123" d="M984.052,837.533a2.76,2.76,0,0,1,1.144,1.178,3.955,3.955,0,0,1,.4,1.851v3.3a.707.707,0,1,1-1.413,0v-3.3a2.224,2.224,0,0,0-.572-1.649,2.193,2.193,0,0,0-1.548-.572,2.254,2.254,0,0,0-1.043.236,2.647,2.647,0,0,0-.74.606,1.3,1.3,0,0,0-.269.875v3.8a.707.707,0,1,1-1.413,0v-9.153a.707.707,0,1,1,1.413,0V838a3.316,3.316,0,0,1,1.01-.673,3.206,3.206,0,0,1,1.279-.236A3.832,3.832,0,0,1,984.052,837.533Z" transform="translate(-838.914 -833.798)" fill="#a88c67"/>
        <path id="Pfad_124" data-name="Pfad 124" d="M1023.8,847.571a.64.64,0,0,1-.437.168h-5.115a2.286,2.286,0,0,0,.841,1.514,2.7,2.7,0,0,0,1.716.572,2.58,2.58,0,0,0,.841-.135,2.3,2.3,0,0,0,.707-.37.676.676,0,0,1,.437-.135.536.536,0,0,1,.4.135.588.588,0,0,1,.235.471.48.48,0,0,1-.2.4,4.049,4.049,0,0,1-1.144.606,3.61,3.61,0,0,1-1.312.235,4.32,4.32,0,0,1-1.985-.471,3.56,3.56,0,0,1-1.884-3.23,4.044,4.044,0,0,1,.471-1.918,3.513,3.513,0,0,1,1.279-1.346,3.818,3.818,0,0,1,1.884-.471,3.353,3.353,0,0,1,1.784.471,3.013,3.013,0,0,1,1.144,1.279,4.2,4.2,0,0,1,.4,1.884C1024,847.3,1023.933,847.436,1023.8,847.571Zm-4.745-2.356a2.443,2.443,0,0,0-.774,1.447h4.476a2.336,2.336,0,0,0-.673-1.447,1.929,1.929,0,0,0-1.447-.538A2.2,2.2,0,0,0,1019.054,845.215Z" transform="translate(-864.326 -840.167)" fill="#a88c67"/>
        <path id="Pfad_125" data-name="Pfad 125" d="M1055.147,850.5a3.557,3.557,0,0,1-1.279-.74.62.62,0,0,1-.168-.4.7.7,0,0,1,.269-.538.8.8,0,0,1,.471-.2.7.7,0,0,1,.5.236,2.369,2.369,0,0,0,.774.5,2.915,2.915,0,0,0,1.077.2,2.256,2.256,0,0,0,1.178-.269.815.815,0,0,0,.438-.673.873.873,0,0,0-.4-.707,4.5,4.5,0,0,0-1.413-.471c-1.716-.336-2.591-1.043-2.591-2.12a1.613,1.613,0,0,1,.4-1.111,2.326,2.326,0,0,1,1.01-.673,4.343,4.343,0,0,1,1.346-.236,4.723,4.723,0,0,1,1.582.269,2.739,2.739,0,0,1,1.11.774.793.793,0,0,1,.168.437.44.44,0,0,1-.236.4.679.679,0,0,1-.37.1.984.984,0,0,1-.639-.269,2.692,2.692,0,0,0-.707-.437,2.463,2.463,0,0,0-.908-.135,2.249,2.249,0,0,0-1.01.2.637.637,0,0,0-.4.572.62.62,0,0,0,.135.438,1.2,1.2,0,0,0,.5.336,6.411,6.411,0,0,0,1.077.3,4.957,4.957,0,0,1,2.086.808,1.694,1.694,0,0,1,.606,1.346,1.879,1.879,0,0,1-.337,1.111,2.342,2.342,0,0,1-.976.808,3.683,3.683,0,0,1-1.582.3A3.275,3.275,0,0,1,1055.147,850.5Z" transform="translate(-888.742 -839.969)" fill="#a88c67"/>
      </g>
    </g>
  </g>
</svg>
