<svg xmlns="http://www.w3.org/2000/svg" width="49" height="49" viewBox="0 0 49 49">
  <path id="Icon_awesome-whatsapp" data-name="Icon awesome-whatsapp" d="M41.661,10.62a24.289,24.289,0,0,0-38.216,29.3L0,52.5l12.873-3.38a24.207,24.207,0,0,0,11.6,2.953h.011A24.515,24.515,0,0,0,49,27.792,24.377,24.377,0,0,0,41.661,10.62ZM24.489,47.983a20.146,20.146,0,0,1-10.281-2.811l-.733-.437-7.634,2,2.034-7.448-.481-.766a20.221,20.221,0,1,1,37.5-10.73A20.407,20.407,0,0,1,24.489,47.983ZM35.558,32.867c-.6-.306-3.587-1.772-4.145-1.969s-.962-.306-1.367.306-1.564,1.969-1.925,2.384-.711.459-1.312.153c-3.566-1.783-5.906-3.183-8.258-7.219-.623-1.072.623-1,1.783-3.314a1.124,1.124,0,0,0-.055-1.061c-.153-.306-1.367-3.292-1.87-4.506-.492-1.181-1-1.017-1.367-1.039-.35-.022-.755-.022-1.159-.022a2.248,2.248,0,0,0-1.619.755A6.818,6.818,0,0,0,12.141,22.4c0,2.986,2.177,5.873,2.472,6.278s4.277,6.53,10.369,9.166c3.85,1.662,5.359,1.8,7.284,1.52,1.17-.175,3.588-1.466,4.091-2.888a5.074,5.074,0,0,0,.35-2.888C36.564,33.316,36.159,33.162,35.558,32.867Z" transform="translate(0 -3.5)" fill="#a88c67"/>
</svg>
